<svg width="599" height="126" viewBox="0 0 599 126" fill="none" xmlns="http://www.w3.org/2000/svg">
<g clip-path="url(#clip0_655_470)">
<rect width="599" height="126" fill="white"/>
<rect y="15" width="235" height="111" rx="10" fill="#000091"/>
<rect x="345" y="15" width="234" height="111" rx="10" fill="#E7E7FE"/>
<path d="M19.06 52V38H27.22V40.36H21.9V43.68H26.42V46.04H21.9V52H19.06ZM33.8864 41.52C37.1664 41.52 39.4064 43.94 39.4064 46.96C39.4064 49.98 37.1664 52.4 33.8864 52.4C30.6064 52.4 28.3664 49.98 28.3664 46.96C28.3664 43.94 30.6064 41.52 33.8864 41.52ZM33.9264 50C35.5464 50 36.7664 48.7 36.7664 46.96C36.7664 45.2 35.5464 43.92 33.9264 43.92C32.2464 43.92 31.0064 45.2 31.0064 46.96C31.0064 48.72 32.2464 50 33.9264 50ZM41.7231 52V41.92H44.2631V42.92C44.9231 42.24 45.7831 41.72 46.9231 41.72C47.2631 41.72 47.5631 41.78 47.8031 41.86V44.36C47.4831 44.28 47.1431 44.22 46.6831 44.22C45.4431 44.22 44.6431 44.9 44.2631 45.54V52H41.7231ZM49.8481 52V41.92H52.3881V42.68C53.0681 42.02 53.9281 41.52 55.1681 41.52C56.4481 41.52 57.5681 42.08 58.2281 43.16C58.9481 42.28 59.9081 41.52 61.6081 41.52C63.6881 41.52 65.3281 42.96 65.3281 45.8V52H62.7681V45.9C62.7681 44.68 62.1081 43.92 60.9681 43.92C59.8681 43.92 59.2681 44.68 58.8681 45.36C58.8881 45.5 58.8881 45.64 58.8881 45.8V52H56.3281V45.9C56.3281 44.68 55.6681 43.92 54.5281 43.92C53.3681 43.92 52.7681 44.78 52.3881 45.42V52H49.8481ZM71.067 52.3C69.047 52.3 67.667 51.14 67.667 49.28C67.667 47.76 68.847 46.62 71.007 46.26L74.087 45.74V45.48C74.087 44.42 73.287 43.74 72.127 43.74C71.147 43.74 70.387 44.2 69.847 44.94L67.987 43.52C68.887 42.28 70.367 41.52 72.207 41.52C75.127 41.52 76.627 43.26 76.627 45.48V52H74.087V51.02C73.447 51.8 72.247 52.3 71.067 52.3ZM70.187 49.16C70.187 49.84 70.727 50.28 71.587 50.28C72.747 50.28 73.587 49.74 74.087 48.94V47.52L71.687 47.92C70.627 48.1 70.187 48.54 70.187 49.16ZM80.1756 48.32V44.2H78.2956V41.92H80.1756V39.4H82.7356V41.92H85.8156V44.2H82.7356V48.32C82.7356 49.44 83.3356 49.88 84.3356 49.88C85.0356 49.88 85.4956 49.8 85.8356 49.66V51.88C85.3356 52.1 84.7356 52.2 83.8956 52.2C81.3756 52.2 80.1756 50.78 80.1756 48.32ZM89.3703 40.16C88.4703 40.16 87.7103 39.4 87.7103 38.5C87.7103 37.6 88.4703 36.84 89.3703 36.84C90.2703 36.84 91.0103 37.6 91.0103 38.5C91.0103 39.4 90.2703 40.16 89.3703 40.16ZM88.0903 52V41.92H90.6303V52H88.0903ZM98.4763 41.52C101.756 41.52 103.996 43.94 103.996 46.96C103.996 49.98 101.756 52.4 98.4763 52.4C95.1963 52.4 92.9563 49.98 92.9563 46.96C92.9563 43.94 95.1963 41.52 98.4763 41.52ZM98.5163 50C100.136 50 101.356 48.7 101.356 46.96C101.356 45.2 100.136 43.92 98.5163 43.92C96.8363 43.92 95.5963 45.2 95.5963 46.96C95.5963 48.72 96.8363 50 98.5163 50ZM106.313 52V41.92H108.853V42.72C109.553 42.04 110.493 41.52 111.833 41.52C114.013 41.52 115.753 43.02 115.753 46V52H113.193V46.1C113.193 44.76 112.433 43.92 111.193 43.92C109.913 43.92 109.233 44.78 108.853 45.42V52H106.313ZM124.568 52V38H128.208L134.468 48.12V38H137.308V52H133.668L127.408 41.88V52H124.568ZM145.547 41.52C148.827 41.52 151.067 43.94 151.067 46.96C151.067 49.98 148.827 52.4 145.547 52.4C142.267 52.4 140.027 49.98 140.027 46.96C140.027 43.94 142.267 41.52 145.547 41.52ZM145.587 50C147.207 50 148.427 48.7 148.427 46.96C148.427 45.2 147.207 43.92 145.587 43.92C143.907 43.92 142.667 45.2 142.667 46.96C142.667 48.72 143.907 50 145.587 50ZM153.383 52V41.92H155.923V42.68C156.603 42.02 157.463 41.52 158.703 41.52C159.983 41.52 161.103 42.08 161.763 43.16C162.483 42.28 163.443 41.52 165.143 41.52C167.223 41.52 168.863 42.96 168.863 45.8V52H166.303V45.9C166.303 44.68 165.643 43.92 164.503 43.92C163.403 43.92 162.803 44.68 162.403 45.36C162.423 45.5 162.423 45.64 162.423 45.8V52H159.863V45.9C159.863 44.68 159.203 43.92 158.063 43.92C156.903 43.92 156.303 44.78 155.923 45.42V52H153.383ZM175.933 52L181.233 38H184.953L190.253 52H187.233L185.893 48.36H180.293L178.953 52H175.933ZM181.173 45.94H185.013L183.093 40.68L181.173 45.94Z" fill="white"/>
<path d="M370.06 52V38H378.22V40.36H372.9V43.68H377.42V46.04H372.9V52H370.06ZM384.886 41.52C388.166 41.52 390.406 43.94 390.406 46.96C390.406 49.98 388.166 52.4 384.886 52.4C381.606 52.4 379.366 49.98 379.366 46.96C379.366 43.94 381.606 41.52 384.886 41.52ZM384.926 50C386.546 50 387.766 48.7 387.766 46.96C387.766 45.2 386.546 43.92 384.926 43.92C383.246 43.92 382.006 45.2 382.006 46.96C382.006 48.72 383.246 50 384.926 50ZM392.723 52V41.92H395.263V42.92C395.923 42.24 396.783 41.72 397.923 41.72C398.263 41.72 398.563 41.78 398.803 41.86V44.36C398.483 44.28 398.143 44.22 397.683 44.22C396.443 44.22 395.643 44.9 395.263 45.54V52H392.723ZM400.848 52V41.92H403.388V42.68C404.068 42.02 404.928 41.52 406.168 41.52C407.448 41.52 408.568 42.08 409.228 43.16C409.948 42.28 410.908 41.52 412.608 41.52C414.688 41.52 416.328 42.96 416.328 45.8V52H413.768V45.9C413.768 44.68 413.108 43.92 411.968 43.92C410.868 43.92 410.268 44.68 409.868 45.36C409.888 45.5 409.888 45.64 409.888 45.8V52H407.328V45.9C407.328 44.68 406.668 43.92 405.528 43.92C404.368 43.92 403.768 44.78 403.388 45.42V52H400.848ZM422.067 52.3C420.047 52.3 418.667 51.14 418.667 49.28C418.667 47.76 419.847 46.62 422.007 46.26L425.087 45.74V45.48C425.087 44.42 424.287 43.74 423.127 43.74C422.147 43.74 421.387 44.2 420.847 44.94L418.987 43.52C419.887 42.28 421.367 41.52 423.207 41.52C426.127 41.52 427.627 43.26 427.627 45.48V52H425.087V51.02C424.447 51.8 423.247 52.3 422.067 52.3ZM421.187 49.16C421.187 49.84 421.727 50.28 422.587 50.28C423.747 50.28 424.587 49.74 425.087 48.94V47.52L422.687 47.92C421.627 48.1 421.187 48.54 421.187 49.16ZM431.176 48.32V44.2H429.296V41.92H431.176V39.4H433.736V41.92H436.816V44.2H433.736V48.32C433.736 49.44 434.336 49.88 435.336 49.88C436.036 49.88 436.496 49.8 436.836 49.66V51.88C436.336 52.1 435.736 52.2 434.896 52.2C432.376 52.2 431.176 50.78 431.176 48.32ZM440.37 40.16C439.47 40.16 438.71 39.4 438.71 38.5C438.71 37.6 439.47 36.84 440.37 36.84C441.27 36.84 442.01 37.6 442.01 38.5C442.01 39.4 441.27 40.16 440.37 40.16ZM439.09 52V41.92H441.63V52H439.09ZM449.476 41.52C452.756 41.52 454.996 43.94 454.996 46.96C454.996 49.98 452.756 52.4 449.476 52.4C446.196 52.4 443.956 49.98 443.956 46.96C443.956 43.94 446.196 41.52 449.476 41.52ZM449.516 50C451.136 50 452.356 48.7 452.356 46.96C452.356 45.2 451.136 43.92 449.516 43.92C447.836 43.92 446.596 45.2 446.596 46.96C446.596 48.72 447.836 50 449.516 50ZM457.313 52V41.92H459.853V42.72C460.553 42.04 461.493 41.52 462.833 41.52C465.013 41.52 466.753 43.02 466.753 46V52H464.193V46.1C464.193 44.76 463.433 43.92 462.193 43.92C460.913 43.92 460.233 44.78 459.853 45.42V52H457.313ZM475.568 52V38H479.208L485.468 48.12V38H488.308V52H484.668L478.408 41.88V52H475.568ZM496.547 41.52C499.827 41.52 502.067 43.94 502.067 46.96C502.067 49.98 499.827 52.4 496.547 52.4C493.267 52.4 491.027 49.98 491.027 46.96C491.027 43.94 493.267 41.52 496.547 41.52ZM496.587 50C498.207 50 499.427 48.7 499.427 46.96C499.427 45.2 498.207 43.92 496.587 43.92C494.907 43.92 493.667 45.2 493.667 46.96C493.667 48.72 494.907 50 496.587 50ZM504.383 52V41.92H506.923V42.68C507.603 42.02 508.463 41.52 509.703 41.52C510.983 41.52 512.103 42.08 512.763 43.16C513.483 42.28 514.443 41.52 516.143 41.52C518.223 41.52 519.863 42.96 519.863 45.8V52H517.303V45.9C517.303 44.68 516.643 43.92 515.503 43.92C514.403 43.92 513.803 44.68 513.403 45.36C513.423 45.5 513.423 45.64 513.423 45.8V52H510.863V45.9C510.863 44.68 510.203 43.92 509.063 43.92C507.903 43.92 507.303 44.78 506.923 45.42V52H504.383ZM528.693 52V38H532.813C535.733 38 537.513 39.44 537.513 41.8C537.513 42.94 536.993 43.92 536.013 44.56C537.493 45.22 538.313 46.42 538.313 47.88C538.313 50.44 536.333 52 533.113 52H528.693ZM532.873 40.36H531.533V43.52H532.873C533.953 43.52 534.593 42.94 534.593 41.92C534.593 40.94 533.953 40.36 532.873 40.36ZM533.273 45.88H531.533V49.64H533.273C534.593 49.64 535.393 48.94 535.393 47.76C535.393 46.56 534.593 45.88 533.273 45.88Z" fill="#6A6AF4"/>
<path d="M115.5 67L120.327 81.8561H135.948L123.31 91.0377L128.137 105.894L115.5 96.7123L102.863 105.894L107.69 91.0377L95.0523 81.8561H110.673L115.5 67Z" fill="white"/>
<rect x="148" y="79" width="24" height="24" fill="white"/>
<circle cx="71" cy="91" r="12" fill="white"/>
<path d="M462.5 67L467.327 81.8561H482.948L470.31 91.0377L475.137 105.894L462.5 96.7123L449.863 105.894L454.69 91.0377L442.052 81.8561H457.673L462.5 67Z" fill="#6A6AF4"/>
<rect x="495" y="79" width="24" height="24" fill="#6A6AF4"/>
<circle cx="418" cy="91" r="12" fill="#6A6AF4"/>
<path d="M337.061 72.0607C337.646 71.4749 337.646 70.5251 337.061 69.9393L327.515 60.3934C326.929 59.8076 325.979 59.8076 325.393 60.3934C324.808 60.9792 324.808 61.9289 325.393 62.5147L333.879 71L325.393 79.4853C324.808 80.0711 324.808 81.0208 325.393 81.6066C325.979 82.1924 326.929 82.1924 327.515 81.6066L337.061 72.0607ZM248 72.5L336 72.5L336 69.5L248 69.5L248 72.5Z" fill="#000091"/>
<path d="M255.8 44.96C255.8 42.02 257.74 39.52 260.92 39.52C262.28 39.52 263.26 39.94 264.04 40.72V35H266.6V50H264.04V49.2C263.26 49.98 262.28 50.4 260.92 50.4C257.74 50.4 255.8 47.9 255.8 44.96ZM258.46 44.96C258.46 46.72 259.56 48 261.28 48C262.42 48 263.36 47.52 264.04 46.6V43.32C263.36 42.4 262.42 41.92 261.28 41.92C259.56 41.92 258.46 43.2 258.46 44.96ZM278.925 48.36C277.985 49.62 276.425 50.4 274.525 50.4C270.945 50.4 268.925 47.9 268.925 44.96C268.925 41.98 270.805 39.52 274.105 39.52C276.905 39.52 278.745 41.42 278.745 44.06C278.745 44.62 278.665 45.14 278.585 45.48H271.525C271.765 47.36 272.925 48.12 274.505 48.12C275.605 48.12 276.565 47.64 277.105 46.92L278.925 48.36ZM274.045 41.6C272.745 41.6 271.885 42.32 271.605 43.64H276.245C276.205 42.62 275.465 41.6 274.045 41.6ZM279.709 39.92H282.429L285.049 47.12L287.649 39.92H290.389L286.709 50H283.369L279.709 39.92ZM293.269 38.16C292.369 38.16 291.609 37.4 291.609 36.5C291.609 35.6 292.369 34.84 293.269 34.84C294.169 34.84 294.909 35.6 294.909 36.5C294.909 37.4 294.169 38.16 293.269 38.16ZM291.989 50V39.92H294.529V50H291.989ZM306.855 48.36C305.915 49.62 304.355 50.4 302.455 50.4C298.875 50.4 296.855 47.9 296.855 44.96C296.855 41.98 298.735 39.52 302.035 39.52C304.835 39.52 306.675 41.42 306.675 44.06C306.675 44.62 306.595 45.14 306.515 45.48H299.455C299.695 47.36 300.855 48.12 302.435 48.12C303.535 48.12 304.495 47.64 305.035 46.92L306.855 48.36ZM301.975 41.6C300.675 41.6 299.815 42.32 299.535 43.64H304.175C304.135 42.62 303.395 41.6 301.975 41.6ZM309.157 50V39.92H311.697V40.72C312.397 40.04 313.337 39.52 314.677 39.52C316.857 39.52 318.597 41.02 318.597 44V50H316.037V44.1C316.037 42.76 315.277 41.92 314.037 41.92C312.757 41.92 312.077 42.78 311.697 43.42V50H309.157ZM322.121 46.32V42.2H320.241V39.92H322.121V37.4H324.681V39.92H327.761V42.2H324.681V46.32C324.681 47.44 325.281 47.88 326.281 47.88C326.981 47.88 327.441 47.8 327.781 47.66V49.88C327.281 50.1 326.681 50.2 325.841 50.2C323.321 50.2 322.121 48.78 322.121 46.32Z" fill="#000091"/>
<rect x="525" width="73.5" height="28" rx="2.33333" fill="#B8FEC9"/>
<path d="M537.285 18.6665V10.4998H539.408L543.06 16.4032V10.4998H544.716V18.6665H542.593L538.941 12.7632V18.6665H537.285ZM549.522 12.5532C551.436 12.5532 552.742 13.9648 552.742 15.7265C552.742 17.4882 551.436 18.8998 549.522 18.8998C547.609 18.8998 546.302 17.4882 546.302 15.7265C546.302 13.9648 547.609 12.5532 549.522 12.5532ZM549.546 17.4998C550.491 17.4998 551.202 16.7415 551.202 15.7265C551.202 14.6998 550.491 13.9532 549.546 13.9532C548.566 13.9532 547.842 14.6998 547.842 15.7265C547.842 16.7532 548.566 17.4998 549.546 17.4998ZM557.967 16.1232V12.7865H559.46V16.0532C559.46 17.8148 558.434 18.8998 556.707 18.8998C554.98 18.8998 553.965 17.8148 553.965 16.0532V12.7865H555.459V16.1232C555.459 16.9748 555.902 17.4998 556.719 17.4998C557.524 17.4998 557.967 16.9748 557.967 16.1232ZM560.352 12.7865H561.938L563.467 16.9865L564.983 12.7865H566.582L564.435 18.6665H562.487L560.352 12.7865ZM572.86 17.7098C572.312 18.4448 571.402 18.8998 570.293 18.8998C568.205 18.8998 567.027 17.4415 567.027 15.7265C567.027 13.9882 568.123 12.5532 570.048 12.5532C571.682 12.5532 572.755 13.6615 572.755 15.2015C572.755 15.5282 572.708 15.8315 572.662 16.0298H568.543C568.683 17.1265 569.36 17.5698 570.282 17.5698C570.923 17.5698 571.483 17.2898 571.798 16.8698L572.86 17.7098ZM570.013 13.7665C569.255 13.7665 568.753 14.1865 568.59 14.9565H571.297C571.273 14.3615 570.842 13.7665 570.013 13.7665ZM575.78 18.8415C574.601 18.8415 573.796 18.1648 573.796 17.0798C573.796 16.1932 574.485 15.5282 575.745 15.3182L577.541 15.0148V14.8632C577.541 14.2448 577.075 13.8482 576.398 13.8482C575.826 13.8482 575.383 14.1165 575.068 14.5482L573.983 13.7198C574.508 12.9965 575.371 12.5532 576.445 12.5532C578.148 12.5532 579.023 13.5682 579.023 14.8632V18.6665H577.541V18.0948C577.168 18.5498 576.468 18.8415 575.78 18.8415ZM575.266 17.0098C575.266 17.4065 575.581 17.6632 576.083 17.6632C576.76 17.6632 577.25 17.3482 577.541 16.8815V16.0532L576.141 16.2865C575.523 16.3915 575.266 16.6482 575.266 17.0098ZM584.593 16.1232V12.7865H586.086V16.0532C586.086 17.8148 585.06 18.8998 583.333 18.8998C581.606 18.8998 580.591 17.8148 580.591 16.0532V12.7865H582.085V16.1232C582.085 16.9748 582.528 17.4998 583.345 17.4998C584.15 17.4998 584.593 16.9748 584.593 16.1232Z" fill="#27A658"/>
</g>
<defs>
<clipPath id="clip0_655_470">
<rect width="599" height="126" fill="white"/>
</clipPath>
</defs>
</svg>
