<svg id="icon-student" viewBox="0 0 23 23" fill="none" xmlns="http://www.w3.org/2000/svg">
    <path fill-rule="evenodd" clip-rule="evenodd"
        d="M11.6279 2.34888C11.8585 2.21712 12.1415 2.21712 12.3721 2.34888L22.8721 8.34888C23.1058 8.48241 23.25 8.73092 23.25 9.00006C23.25 9.2692 23.1058 9.51771 22.8721 9.65124L12.3721 15.6512C12.1415 15.783 11.8585 15.783 11.6279 15.6512L1.1279 9.65124C0.894215 9.51771 0.75 9.2692 0.75 9.00006C0.75 8.73092 0.894215 8.48241 1.1279 8.34888L11.6279 2.34888ZM3.01167 9.00006L12 14.1362L20.9883 9.00006L12 3.86387L3.01167 9.00006Z"
        fill="currentColor" />
    <path fill-rule="evenodd" clip-rule="evenodd"
        d="M22.5 8.25006C22.9142 8.25006 23.25 8.58585 23.25 9.00006V17.2501C23.25 17.6643 22.9142 18.0001 22.5 18.0001C22.0858 18.0001 21.75 17.6643 21.75 17.2501V9.00006C21.75 8.58585 22.0858 8.25006 22.5 8.25006ZM5.25 10.5001C5.66421 10.5001 6 10.8358 6 11.2501V16.8088L11.25 19.7254V15.0001C11.25 14.5858 11.5858 14.2501 12 14.2501C12.4142 14.2501 12.75 14.5858 12.75 15.0001V19.7254L18 16.8088V11.2501C18 10.8358 18.3358 10.5001 18.75 10.5001C19.1642 10.5001 19.5 10.8358 19.5 11.2501V17.2501C19.5 17.5224 19.3523 17.7734 19.1142 17.9057L12.3762 21.6491C12.2656 21.7133 12.1371 21.7501 12 21.7501C11.8629 21.7501 11.7344 21.7133 11.6238 21.6491L4.88577 17.9057C4.64767 17.7734 4.5 17.5224 4.5 17.2501V11.2501C4.5 10.8358 4.83579 10.5001 5.25 10.5001Z"
        fill="currentColor" />
</svg>