<svg id="icon-route" viewBox="0 0 21 21" fill="none" xmlns="http://www.w3.org/2000/svg">
    <path
        d="M3.81451 14.3012V8.28777C3.81451 7.18363 4.25312 6.12471 5.03387 5.34397C5.81462 4.56322 6.87353 4.1246 7.97767 4.1246C9.08181 4.1246 10.1407 4.56322 10.9215 5.34397C11.7022 6.12471 12.1408 7.18363 12.1408 8.28777V14.7638C12.1408 15.3772 12.3845 15.9655 12.8183 16.3993C13.252 16.833 13.8403 17.0767 14.4537 17.0767C15.0671 17.0767 15.6554 16.833 16.0892 16.3993C16.5229 15.9655 16.7666 15.3772 16.7666 14.7638V8.59307C16.1491 8.37482 15.6286 7.94528 15.2971 7.38038C14.9657 6.81548 14.8446 6.15158 14.9553 5.50605C15.066 4.86051 15.4014 4.2749 15.9021 3.85273C16.4029 3.43056 17.0368 3.19901 17.6917 3.19901C18.3467 3.19901 18.9806 3.43056 19.4813 3.85273C19.9821 4.2749 20.3174 4.86051 20.4281 5.50605C20.5389 6.15158 20.4178 6.81548 20.0863 7.38038C19.7549 7.94528 19.2344 8.37482 18.6169 8.59307V14.7638C18.6169 15.8679 18.1783 16.9269 17.3975 17.7076C16.6168 18.4884 15.5579 18.927 14.4537 18.927C13.3496 18.927 12.2907 18.4884 11.5099 17.7076C10.7292 16.9269 10.2905 15.8679 10.2905 14.7638V8.28777C10.2905 7.67436 10.0469 7.08607 9.61312 6.65233C9.17937 6.21858 8.59108 5.9749 7.97767 5.9749C7.36426 5.9749 6.77597 6.21858 6.34223 6.65233C5.90848 7.08607 5.6648 7.67436 5.6648 8.28777V14.3012H8.44025L4.73966 18.927L1.03906 14.3012H3.81451ZM17.6917 6.90005C17.9371 6.90005 18.1724 6.80258 18.3459 6.62908C18.5194 6.45558 18.6169 6.22027 18.6169 5.9749C18.6169 5.72954 18.5194 5.49422 18.3459 5.32072C18.1724 5.14722 17.9371 5.04975 17.6917 5.04975C17.4464 5.04975 17.211 5.14722 17.0375 5.32072C16.8641 5.49422 16.7666 5.72954 16.7666 5.9749C16.7666 6.22027 16.8641 6.45558 17.0375 6.62908C17.211 6.80258 17.4464 6.90005 17.6917 6.90005Z"
        fill="currentColor" />

</svg>