<svg id="icon-union" viewBox="0 0 48 87" fill="none" xmlns="http://www.w3.org/2000/svg">
    <path fill-rule="evenodd" clip-rule="evenodd"
        d="M23.5256 16.6134C28.1132 16.6134 31.8322 12.8944 31.8322 8.30674C31.8322 3.71911 28.1132 9.15527e-05 23.5256 9.15527e-05C18.9379 9.15527e-05 15.2189 3.71911 15.2189 8.30674C15.2189 12.8944 18.9379 16.6134 23.5256 16.6134ZM35.1549 49.84H35.0759C35.128 50.1891 35.1549 50.5456 35.1549 50.908V81.7613C35.1549 84.3172 32.9235 86.3892 30.1709 86.3892C27.4183 86.3892 25.1869 84.3172 25.1869 81.7613V52.4506H21.8642V81.7613C21.8642 84.3172 19.6328 86.3892 16.8803 86.3892C14.1277 86.3892 11.8963 84.3172 11.8963 81.7613V50.908C11.8963 50.5456 11.9232 50.1891 11.9753 49.84H11.8963V45.5312L9.89624 50.6757C8.89884 53.2412 6.01052 54.5124 3.445 53.515C0.879477 52.5176 -0.391734 49.6293 0.605669 47.0638L9.73884 23.5714C10.9803 20.3782 14.0549 18.2747 17.481 18.2747H29.8653C33.2902 18.2747 36.3641 20.3768 37.6063 23.5685L46.7501 47.062C47.7485 49.6272 46.4784 52.516 43.9132 53.5143C41.3481 54.5127 38.4593 53.2426 37.4609 50.6775L35.1549 44.7525V49.84Z"
        fill="currentColor" />
</svg>