<svg xmlns="http://www.w3.org/2000/svg" xmlns:xlink="http://www.w3.org/1999/xlink" width="0" height="0"
    style="display:none;">
    <symbol viewBox="0 0 24 24" id="ri-briefcase-4-line">
        <path
            d="M7 5V2C7 1.44772 7.44772 1 8 1H16C16.5523 1 17 1.44772 17 2V5H21C21.5523 5 22 5.44772 22 6V20C22 20.5523 21.5523 21 21 21H3C2.44772 21 2 20.5523 2 20V6C2 5.44772 2.44772 5 3 5H7ZM9 13H4V19H20V13H15V16H9V13ZM20 7H4V11H9V9H15V11H20V7ZM11 11V14H13V11H11ZM9 3V5H15V3H9Z">
        </path>
    </symbol>
    <symbol viewBox="0 0 24 24" id="ri-graduation-cap-line">
        <path
            d="M4 11.3333L0 9L12 2L24 9V17.5H22V10.1667L20 11.3333V18.0113L19.7774 18.2864C17.9457 20.5499 15.1418 22 12 22C8.85817 22 6.05429 20.5499 4.22263 18.2864L4 18.0113V11.3333ZM6 12.5V17.2917C7.46721 18.954 9.61112 20 12 20C14.3889 20 16.5328 18.954 18 17.2917V12.5L12 16L6 12.5ZM3.96927 9L12 13.6846L20.0307 9L12 4.31541L3.96927 9Z">
        </path>
    </symbol>
    <symbol viewBox="0 0 24 24" id="ri-route-line">
        <path
            d="M4 15V8.5C4 6.01472 6.01472 4 8.5 4C10.9853 4 13 6.01472 13 8.5V15.5C13 16.8807 14.1193 18 15.5 18C16.8807 18 18 16.8807 18 15.5V8.82929C16.8348 8.41746 16 7.30622 16 6C16 4.34315 17.3431 3 19 3C20.6569 3 22 4.34315 22 6C22 7.30622 21.1652 8.41746 20 8.82929V15.5C20 17.9853 17.9853 20 15.5 20C13.0147 20 11 17.9853 11 15.5V8.5C11 7.11929 9.88071 6 8.5 6C7.11929 6 6 7.11929 6 8.5V15H9L5 20L1 15H4ZM19 7C19.5523 7 20 6.55228 20 6C20 5.44772 19.5523 5 19 5C18.4477 5 18 5.44772 18 6C18 6.55228 18.4477 7 19 7Z">
        </path>
    </symbol>
    <symbol id="icon-union" viewBox="0 0 48 87">
        <path
            d="M23.5256 16.6134C28.1132 16.6134 31.8322 12.8944 31.8322 8.30674C31.8322 3.71911 28.1132 9.15527e-05 23.5256 9.15527e-05C18.9379 9.15527e-05 15.2189 3.71911 15.2189 8.30674C15.2189 12.8944 18.9379 16.6134 23.5256 16.6134ZM35.1549 49.84H35.0759C35.128 50.1891 35.1549 50.5456 35.1549 50.908V81.7613C35.1549 84.3172 32.9235 86.3892 30.1709 86.3892C27.4183 86.3892 25.1869 84.3172 25.1869 81.7613V52.4506H21.8642V81.7613C21.8642 84.3172 19.6328 86.3892 16.8803 86.3892C14.1277 86.3892 11.8963 84.3172 11.8963 81.7613V50.908C11.8963 50.5456 11.9232 50.1891 11.9753 49.84H11.8963V45.5312L9.89624 50.6757C8.89884 53.2412 6.01052 54.5124 3.445 53.515C0.879477 52.5176 -0.391734 49.6293 0.605669 47.0638L9.73884 23.5714C10.9803 20.3782 14.0549 18.2747 17.481 18.2747H29.8653C33.2902 18.2747 36.3641 20.3768 37.6063 23.5685L46.7501 47.062C47.7485 49.6272 46.4784 52.516 43.9132 53.5143C41.3481 54.5127 38.4593 53.2426 37.4609 50.6775L35.1549 44.7525V49.84Z" />
    </symbol>
    <symbol viewBox="0 0 24 24" id="ri-arrow-down-s-line">
        <path
            d="M11.9999 13.1714L16.9497 8.22168L18.3639 9.63589L11.9999 15.9999L5.63599 9.63589L7.0502 8.22168L11.9999 13.1714Z">
        </path>
    </symbol>
    <symbol viewBox="0 0 24 24" id="ri-arrow-up-s-line">
        <path
            d="M11.9999 10.8284L7.0502 15.7782L5.63599 14.364L11.9999 8L18.3639 14.364L16.9497 15.7782L11.9999 10.8284Z">
        </path>
    </symbol>
</svg>