<svg width="583" height="175" viewBox="0 0 583 175" fill="none" xmlns="http://www.w3.org/2000/svg">
<rect x="30" y="63" width="201" height="82" rx="10" fill="#E3E3FD"/>
<path d="M30 44C30 38.4772 34.4772 34 40 34H221C226.523 34 231 38.4772 231 44V83H30V44Z" fill="#000091"/>
<path d="M75.06 68V54H79.18C82.1 54 83.88 55.44 83.88 57.8C83.88 58.94 83.36 59.92 82.38 60.56C83.86 61.22 84.68 62.42 84.68 63.88C84.68 66.44 82.7 68 79.48 68H75.06ZM79.24 56.36H77.9V59.52H79.24C80.32 59.52 80.96 58.94 80.96 57.92C80.96 56.94 80.32 56.36 79.24 56.36ZM79.64 61.88H77.9V65.64H79.64C80.96 65.64 81.76 64.94 81.76 63.76C81.76 62.56 80.96 61.88 79.64 61.88ZM85.8586 68L91.1586 54H94.8786L100.179 68H97.1586L95.8186 64.36H90.2186L88.8786 68H85.8586ZM91.0986 61.94H94.9386L93.0186 56.68L91.0986 61.94ZM108.468 65.74C110.068 65.74 111.328 64.96 112.128 63.82L114.368 65.54C113.088 67.28 111.008 68.4 108.468 68.4C104.048 68.4 101.028 65 101.028 61C101.028 57 104.048 53.6 108.468 53.6C111.008 53.6 113.088 54.74 114.368 56.44L112.128 58.18C111.328 57.04 110.068 56.26 108.468 56.26C105.828 56.26 103.948 58.32 103.948 61C103.948 63.68 105.828 65.74 108.468 65.74ZM122.423 68V54H127.043C130.123 54 132.003 55.58 132.003 58.18C132.003 60.76 130.123 62.34 127.043 62.34H125.263V68H122.423ZM127.163 56.36H125.263V59.98H127.163C128.363 59.98 129.083 59.28 129.083 58.14C129.083 57.08 128.363 56.36 127.163 56.36ZM133.973 68V57.92H136.513V58.92C137.173 58.24 138.033 57.72 139.173 57.72C139.513 57.72 139.813 57.78 140.053 57.86V60.36C139.733 60.28 139.393 60.22 138.933 60.22C137.693 60.22 136.893 60.9 136.513 61.54V68H133.973ZM146.468 57.52C149.748 57.52 151.988 59.94 151.988 62.96C151.988 65.98 149.748 68.4 146.468 68.4C143.188 68.4 140.948 65.98 140.948 62.96C140.948 59.94 143.188 57.52 146.468 57.52ZM146.508 66C148.128 66 149.348 64.7 149.348 62.96C149.348 61.2 148.128 59.92 146.508 59.92C144.828 59.92 143.588 61.2 143.588 62.96C143.588 64.72 144.828 66 146.508 66ZM166.676 65.74C167.996 65.74 169.136 65.28 169.936 64.52V62.08H166.376V59.66H172.776V65.54C171.476 67.28 169.296 68.4 166.676 68.4C162.136 68.4 159.036 65 159.036 61C159.036 57 162.056 53.6 166.476 53.6C169.016 53.6 171.096 54.74 172.376 56.44L170.136 58.18C169.336 57.04 168.076 56.26 166.476 56.26C163.836 56.26 161.956 58.32 161.956 61C161.956 63.68 163.936 65.74 166.676 65.74ZM174.296 68L179.596 54H183.316L188.616 68H185.596L184.256 64.36H178.656L177.316 68H174.296ZM179.536 61.94H183.376L181.456 56.68L179.536 61.94Z" fill="white"/>
<path d="M51.566 124V120.706L58.046 114.334C59.504 112.849 60.422 111.823 60.422 110.284C60.422 108.718 59.342 107.8 57.857 107.8C56.048 107.8 54.941 108.907 53.942 110.581L50.972 108.772C52.565 106.18 54.914 104.56 58.208 104.56C61.502 104.56 64.148 106.666 64.148 109.906C64.148 112.498 62.447 114.496 60.584 116.305L56.021 120.706H64.634V124H51.566ZM65.8167 118.978V115.684L73.9167 105.1H78.1827V115.684H80.0997V118.978H78.1827V124H74.5377V118.978H65.8167ZM69.5697 115.684H74.5377V109.231L69.5697 115.684ZM93.8195 104.506C96.5465 104.506 98.4095 106.477 98.4095 109.015C98.4095 111.553 96.5465 113.524 93.8195 113.524C91.0655 113.524 89.1755 111.553 89.1755 109.015C89.1755 106.477 91.0655 104.506 93.8195 104.506ZM90.7685 123.973L104.647 105.073H108.157L94.2785 123.973H90.7685ZM93.8195 111.229C95.0075 111.229 95.8715 110.311 95.8715 109.015C95.8715 107.692 95.0075 106.801 93.8195 106.801C92.6045 106.801 91.7405 107.692 91.7405 109.015C91.7405 110.338 92.6045 111.229 93.8195 111.229ZM105.214 115.495C107.941 115.495 109.804 117.466 109.804 120.004C109.804 122.542 107.941 124.513 105.214 124.513C102.46 124.513 100.57 122.542 100.57 120.004C100.57 117.466 102.46 115.495 105.214 115.495ZM105.214 122.218C106.402 122.218 107.266 121.3 107.266 120.004C107.266 118.681 106.402 117.79 105.214 117.79C103.999 117.79 103.135 118.681 103.135 120.004C103.135 121.327 103.999 122.218 105.214 122.218ZM128.801 122.36C127.861 123.62 126.301 124.4 124.401 124.4C120.821 124.4 118.801 121.9 118.801 118.96C118.801 115.98 120.681 113.52 123.981 113.52C126.781 113.52 128.621 115.42 128.621 118.06C128.621 118.62 128.541 119.14 128.461 119.48H121.401C121.641 121.36 122.801 122.12 124.381 122.12C125.481 122.12 126.441 121.64 126.981 120.92L128.801 122.36ZM123.921 115.6C122.621 115.6 121.761 116.32 121.481 117.64H126.121C126.081 116.62 125.341 115.6 123.921 115.6ZM131.103 124V113.92H133.643V114.72C134.343 114.04 135.283 113.52 136.623 113.52C138.803 113.52 140.543 115.02 140.543 118V124H137.983V118.1C137.983 116.76 137.223 115.92 135.983 115.92C134.703 115.92 134.023 116.78 133.643 117.42V124H131.103ZM158.098 122.36C157.158 123.62 155.598 124.4 153.698 124.4C150.118 124.4 148.098 121.9 148.098 118.96C148.098 115.98 149.978 113.52 153.278 113.52C156.078 113.52 157.918 115.42 157.918 118.06C157.918 118.62 157.838 119.14 157.758 119.48H150.698C150.938 121.36 152.098 122.12 153.678 122.12C154.778 122.12 155.738 121.64 156.278 120.92L158.098 122.36ZM153.218 115.6C151.918 115.6 151.058 116.32 150.778 117.64H155.418C155.378 116.62 154.638 115.6 153.218 115.6ZM160.4 124V113.92H162.94V114.68C163.62 114.02 164.48 113.52 165.72 113.52C167 113.52 168.12 114.08 168.78 115.16C169.5 114.28 170.46 113.52 172.16 113.52C174.24 113.52 175.88 114.96 175.88 117.8V124H173.32V117.9C173.32 116.68 172.66 115.92 171.52 115.92C170.42 115.92 169.82 116.68 169.42 117.36C169.44 117.5 169.44 117.64 169.44 117.8V124H166.88V117.9C166.88 116.68 166.22 115.92 165.08 115.92C163.92 115.92 163.32 116.78 162.94 117.42V124H160.4ZM178.779 128.92V113.92H181.319V114.74C182.099 113.96 183.079 113.52 184.459 113.52C187.659 113.52 189.579 116.02 189.579 118.96C189.579 121.9 187.659 124.4 184.459 124.4C183.079 124.4 182.099 123.96 181.319 123.18V128.92H178.779ZM184.099 115.92C182.919 115.92 181.959 116.44 181.319 117.38V120.54C181.999 121.5 182.939 122 184.099 122C185.819 122 186.939 120.72 186.939 118.96C186.939 117.2 185.819 115.92 184.099 115.92ZM191.904 124V109H194.444V124H191.904ZM202.29 113.52C205.57 113.52 207.81 115.94 207.81 118.96C207.81 121.98 205.57 124.4 202.29 124.4C199.01 124.4 196.77 121.98 196.77 118.96C196.77 115.94 199.01 113.52 202.29 113.52ZM202.33 122C203.95 122 205.17 120.7 205.17 118.96C205.17 117.2 203.95 115.92 202.33 115.92C200.65 115.92 199.41 117.2 199.41 118.96C199.41 120.72 200.65 122 202.33 122ZM211.406 112.16C210.506 112.16 209.746 111.4 209.746 110.5C209.746 109.6 210.506 108.84 211.406 108.84C212.306 108.84 213.046 109.6 213.046 110.5C213.046 111.4 212.306 112.16 211.406 112.16ZM210.126 124V113.92H212.666V124H210.126Z" fill="#000091"/>
<rect x="352" y="63" width="200" height="82" rx="10" fill="#B8FEC9"/>
<path d="M352 44C352 38.4772 356.477 34 362 34H542C547.523 34 552 38.4772 552 44V83H352V44Z" fill="#000091"/>
<path d="M373.06 68V54H377.18C380.1 54 381.88 55.44 381.88 57.8C381.88 58.94 381.36 59.92 380.38 60.56C381.86 61.22 382.68 62.42 382.68 63.88C382.68 66.44 380.7 68 377.48 68H373.06ZM377.24 56.36H375.9V59.52H377.24C378.32 59.52 378.96 58.94 378.96 57.92C378.96 56.94 378.32 56.36 377.24 56.36ZM377.64 61.88H375.9V65.64H377.64C378.96 65.64 379.76 64.94 379.76 63.76C379.76 62.56 378.96 61.88 377.64 61.88ZM383.859 68L389.159 54H392.879L398.179 68H395.159L393.819 64.36H388.219L386.879 68H383.859ZM389.099 61.94H392.939L391.019 56.68L389.099 61.94ZM406.468 65.74C408.068 65.74 409.328 64.96 410.128 63.82L412.368 65.54C411.088 67.28 409.008 68.4 406.468 68.4C402.048 68.4 399.028 65 399.028 61C399.028 57 402.048 53.6 406.468 53.6C409.008 53.6 411.088 54.74 412.368 56.44L410.128 58.18C409.328 57.04 408.068 56.26 406.468 56.26C403.828 56.26 401.948 58.32 401.948 61C401.948 63.68 403.828 65.74 406.468 65.74ZM420.423 68V54H425.043C428.123 54 430.003 55.58 430.003 58.18C430.003 60.76 428.123 62.34 425.043 62.34H423.263V68H420.423ZM425.163 56.36H423.263V59.98H425.163C426.363 59.98 427.083 59.28 427.083 58.14C427.083 57.08 426.363 56.36 425.163 56.36ZM431.973 68V57.92H434.513V58.92C435.173 58.24 436.033 57.72 437.173 57.72C437.513 57.72 437.813 57.78 438.053 57.86V60.36C437.733 60.28 437.393 60.22 436.933 60.22C435.693 60.22 434.893 60.9 434.513 61.54V68H431.973ZM444.468 57.52C447.748 57.52 449.988 59.94 449.988 62.96C449.988 65.98 447.748 68.4 444.468 68.4C441.188 68.4 438.948 65.98 438.948 62.96C438.948 59.94 441.188 57.52 444.468 57.52ZM444.508 66C446.128 66 447.348 64.7 447.348 62.96C447.348 61.2 446.128 59.92 444.508 59.92C442.828 59.92 441.588 61.2 441.588 62.96C441.588 64.72 442.828 66 444.508 66ZM456.476 68L461.776 54H465.496L470.796 68H467.776L466.436 64.36H460.836L459.496 68H456.476ZM461.716 61.94H465.556L463.636 56.68L461.716 61.94ZM479.285 65.74C480.605 65.74 481.745 65.28 482.545 64.52V62.08H478.985V59.66H485.385V65.54C484.085 67.28 481.905 68.4 479.285 68.4C474.745 68.4 471.645 65 471.645 61C471.645 57 474.665 53.6 479.085 53.6C481.625 53.6 483.705 54.74 484.985 56.44L482.745 58.18C481.945 57.04 480.685 56.26 479.085 56.26C476.445 56.26 474.565 58.32 474.565 61C474.565 63.68 476.545 65.74 479.285 65.74ZM495.14 53.6C499.54 53.6 502.56 57 502.56 61C502.56 65 499.54 68.4 495.14 68.4C490.72 68.4 487.7 65 487.7 61C487.7 57 490.72 53.6 495.14 53.6ZM495.14 65.74C497.76 65.74 499.64 63.68 499.64 61C499.64 58.32 497.76 56.26 495.14 56.26C492.5 56.26 490.62 58.32 490.62 61C490.62 63.68 492.5 65.74 495.14 65.74ZM505.482 68V54H509.762C512.842 54 514.742 55.58 514.742 58.18C514.742 59.88 513.922 61.14 512.482 61.8L516.862 68H513.522L509.782 62.34H508.322V68H505.482ZM509.922 56.36H508.322V59.98H509.922C511.122 59.98 511.822 59.28 511.822 58.14C511.822 57.08 511.122 56.36 509.922 56.36ZM517.706 68L523.006 54H526.726L532.026 68H529.006L527.666 64.36H522.066L520.726 68H517.706ZM522.946 61.94H526.786L524.866 56.68L522.946 61.94Z" fill="#B8FEC9"/>
<path d="M244.36 55.3C242.34 55.3 240.96 54.14 240.96 52.28C240.96 50.76 242.14 49.62 244.3 49.26L247.38 48.74V48.48C247.38 47.42 246.58 46.74 245.42 46.74C244.44 46.74 243.68 47.2 243.14 47.94L241.28 46.52C242.18 45.28 243.66 44.52 245.5 44.52C248.42 44.52 249.92 46.26 249.92 48.48V55H247.38V54.02C246.74 54.8 245.54 55.3 244.36 55.3ZM243.48 52.16C243.48 52.84 244.02 53.28 244.88 53.28C246.04 53.28 246.88 52.74 247.38 51.94V50.52L244.98 50.92C243.92 51.1 243.48 51.54 243.48 52.16ZM251.291 44.92H254.011L256.631 52.12L259.231 44.92H261.971L258.291 55H254.951L251.291 44.92ZM272.734 53.36C271.794 54.62 270.234 55.4 268.334 55.4C264.754 55.4 262.734 52.9 262.734 49.96C262.734 46.98 264.614 44.52 267.914 44.52C270.714 44.52 272.554 46.42 272.554 49.06C272.554 49.62 272.474 50.14 272.394 50.48H265.334C265.574 52.36 266.734 53.12 268.314 53.12C269.414 53.12 270.374 52.64 270.914 51.92L272.734 53.36ZM267.854 46.6C266.554 46.6 265.694 47.32 265.414 48.64H270.054C270.014 47.62 269.274 46.6 267.854 46.6ZM279.798 53C280.798 53 281.598 52.54 282.078 51.84L284.058 53.36C283.118 54.6 281.638 55.4 279.798 55.4C276.318 55.4 274.238 52.9 274.238 49.96C274.238 47.02 276.318 44.52 279.798 44.52C281.638 44.52 283.118 45.32 284.058 46.56L282.078 48.08C281.598 47.38 280.798 46.92 279.758 46.92C278.098 46.92 276.878 48.2 276.878 49.96C276.878 51.74 278.098 53 279.798 53Z" fill="#27A658"/>
<path d="M246.36 106C247.36 106 248.16 105.54 248.64 104.84L250.62 106.36C249.68 107.6 248.2 108.4 246.36 108.4C242.88 108.4 240.8 105.9 240.8 102.96C240.8 100.02 242.88 97.52 246.36 97.52C248.2 97.52 249.68 98.32 250.62 99.56L248.64 101.08C248.16 100.38 247.36 99.92 246.32 99.92C244.66 99.92 243.44 101.2 243.44 102.96C243.44 104.74 244.66 106 246.36 106ZM256.925 97.52C260.205 97.52 262.445 99.94 262.445 102.96C262.445 105.98 260.205 108.4 256.925 108.4C253.645 108.4 251.405 105.98 251.405 102.96C251.405 99.94 253.645 97.52 256.925 97.52ZM256.965 106C258.585 106 259.805 104.7 259.805 102.96C259.805 101.2 258.585 99.92 256.965 99.92C255.285 99.92 254.045 101.2 254.045 102.96C254.045 104.72 255.285 106 256.965 106ZM264.762 108V97.92H267.302V98.72C268.002 98.04 268.942 97.52 270.282 97.52C272.462 97.52 274.202 99.02 274.202 102V108H271.642V102.1C271.642 100.76 270.882 99.92 269.642 99.92C268.362 99.92 267.682 100.78 267.302 101.42V108H264.762ZM277.726 104.32V100.2H275.846V97.92H277.726V95.4H280.286V97.92H283.366V100.2H280.286V104.32C280.286 105.44 280.886 105.88 281.886 105.88C282.586 105.88 283.046 105.8 283.386 105.66V107.88C282.886 108.1 282.286 108.2 281.446 108.2C278.926 108.2 277.726 106.78 277.726 104.32ZM286.921 96.16C286.021 96.16 285.261 95.4 285.261 94.5C285.261 93.6 286.021 92.84 286.921 92.84C287.821 92.84 288.561 93.6 288.561 94.5C288.561 95.4 287.821 96.16 286.921 96.16ZM285.641 108V97.92H288.181V108H285.641ZM291.227 108V97.92H293.767V98.72C294.467 98.04 295.407 97.52 296.747 97.52C298.927 97.52 300.667 99.02 300.667 102V108H298.107V102.1C298.107 100.76 297.347 99.92 296.107 99.92C294.827 99.92 294.147 100.78 293.767 101.42V108H291.227ZM310.191 103.64V97.92H312.751V103.52C312.751 106.54 310.991 108.4 308.031 108.4C305.071 108.4 303.331 106.54 303.331 103.52V97.92H305.891V103.64C305.891 105.1 306.651 106 308.051 106C309.431 106 310.191 105.1 310.191 103.64ZM316.843 96.16C315.943 96.16 315.183 95.4 315.183 94.5C315.183 93.6 315.943 92.84 316.843 92.84C317.743 92.84 318.483 93.6 318.483 94.5C318.483 95.4 317.743 96.16 316.843 96.16ZM315.563 108V97.92H318.103V108H315.563ZM321.789 104.32V100.2H319.909V97.92H321.789V95.4H324.349V97.92H327.429V100.2H324.349V104.32C324.349 105.44 324.949 105.88 325.949 105.88C326.649 105.88 327.109 105.8 327.449 105.66V107.88C326.949 108.1 326.349 108.2 325.509 108.2C322.989 108.2 321.789 106.78 321.789 104.32ZM335.368 96.32H332.928L335.008 93H337.768L335.368 96.32ZM338.788 106.36C337.848 107.62 336.288 108.4 334.388 108.4C330.808 108.4 328.788 105.9 328.788 102.96C328.788 99.98 330.668 97.52 333.968 97.52C336.768 97.52 338.608 99.42 338.608 102.06C338.608 102.62 338.528 103.14 338.448 103.48H331.388C331.628 105.36 332.788 106.12 334.368 106.12C335.468 106.12 336.428 105.64 336.968 104.92L338.788 106.36ZM333.908 99.6C332.608 99.6 331.748 100.32 331.468 101.64H336.108C336.068 100.62 335.328 99.6 333.908 99.6Z" fill="#27A658"/>
<path d="M344.061 72.0607C344.646 71.4749 344.646 70.5251 344.061 69.9393L334.515 60.3934C333.929 59.8076 332.979 59.8076 332.393 60.3934C331.808 60.9792 331.808 61.9289 332.393 62.5147L340.879 71L332.393 79.4853C331.808 80.0711 331.808 81.0208 332.393 81.6066C332.979 82.1924 333.929 82.1924 334.515 81.6066L344.061 72.0607ZM239 72.5L343 72.5L343 69.5L239 69.5L239 72.5Z" fill="#27A658"/>
<path d="M372.566 124V120.706L379.046 114.334C380.504 112.849 381.422 111.823 381.422 110.284C381.422 108.718 380.342 107.8 378.857 107.8C377.048 107.8 375.941 108.907 374.942 110.581L371.972 108.772C373.565 106.18 375.914 104.56 379.208 104.56C382.502 104.56 385.148 106.666 385.148 109.906C385.148 112.498 383.447 114.496 381.584 116.305L377.021 120.706H385.634V124H372.566ZM386.817 118.978V115.684L394.917 105.1H399.183V115.684H401.1V118.978H399.183V124H395.538V118.978H386.817ZM390.57 115.684H395.538V109.231L390.57 115.684ZM414.82 104.506C417.547 104.506 419.41 106.477 419.41 109.015C419.41 111.553 417.547 113.524 414.82 113.524C412.066 113.524 410.176 111.553 410.176 109.015C410.176 106.477 412.066 104.506 414.82 104.506ZM411.769 123.973L425.647 105.073H429.157L415.279 123.973H411.769ZM414.82 111.229C416.008 111.229 416.872 110.311 416.872 109.015C416.872 107.692 416.008 106.801 414.82 106.801C413.605 106.801 412.741 107.692 412.741 109.015C412.741 110.338 413.605 111.229 414.82 111.229ZM426.214 115.495C428.941 115.495 430.804 117.466 430.804 120.004C430.804 122.542 428.941 124.513 426.214 124.513C423.46 124.513 421.57 122.542 421.57 120.004C421.57 117.466 423.46 115.495 426.214 115.495ZM426.214 122.218C427.402 122.218 428.266 121.3 428.266 120.004C428.266 118.681 427.402 117.79 426.214 117.79C424.999 117.79 424.135 118.681 424.135 120.004C424.135 121.327 424.999 122.218 426.214 122.218ZM449.801 122.36C448.861 123.62 447.301 124.4 445.401 124.4C441.821 124.4 439.801 121.9 439.801 118.96C439.801 115.98 441.681 113.52 444.981 113.52C447.781 113.52 449.621 115.42 449.621 118.06C449.621 118.62 449.541 119.14 449.461 119.48H442.401C442.641 121.36 443.801 122.12 445.381 122.12C446.481 122.12 447.441 121.64 447.981 120.92L449.801 122.36ZM444.921 115.6C443.621 115.6 442.761 116.32 442.481 117.64H447.121C447.081 116.62 446.341 115.6 444.921 115.6ZM452.103 124V113.92H454.643V114.72C455.343 114.04 456.283 113.52 457.623 113.52C459.803 113.52 461.543 115.02 461.543 118V124H458.983V118.1C458.983 116.76 458.223 115.92 456.983 115.92C455.703 115.92 455.023 116.78 454.643 117.42V124H452.103ZM479.098 122.36C478.158 123.62 476.598 124.4 474.698 124.4C471.118 124.4 469.098 121.9 469.098 118.96C469.098 115.98 470.978 113.52 474.278 113.52C477.078 113.52 478.918 115.42 478.918 118.06C478.918 118.62 478.838 119.14 478.758 119.48H471.698C471.938 121.36 473.098 122.12 474.678 122.12C475.778 122.12 476.738 121.64 477.278 120.92L479.098 122.36ZM474.218 115.6C472.918 115.6 472.058 116.32 471.778 117.64H476.418C476.378 116.62 475.638 115.6 474.218 115.6ZM481.4 124V113.92H483.94V114.68C484.62 114.02 485.48 113.52 486.72 113.52C488 113.52 489.12 114.08 489.78 115.16C490.5 114.28 491.46 113.52 493.16 113.52C495.24 113.52 496.88 114.96 496.88 117.8V124H494.32V117.9C494.32 116.68 493.66 115.92 492.52 115.92C491.42 115.92 490.82 116.68 490.42 117.36C490.44 117.5 490.44 117.64 490.44 117.8V124H487.88V117.9C487.88 116.68 487.22 115.92 486.08 115.92C484.92 115.92 484.32 116.78 483.94 117.42V124H481.4ZM499.779 128.92V113.92H502.319V114.74C503.099 113.96 504.079 113.52 505.459 113.52C508.659 113.52 510.579 116.02 510.579 118.96C510.579 121.9 508.659 124.4 505.459 124.4C504.079 124.4 503.099 123.96 502.319 123.18V128.92H499.779ZM505.099 115.92C503.919 115.92 502.959 116.44 502.319 117.38V120.54C502.999 121.5 503.939 122 505.099 122C506.819 122 507.939 120.72 507.939 118.96C507.939 117.2 506.819 115.92 505.099 115.92ZM512.904 124V109H515.444V124H512.904ZM523.29 113.52C526.57 113.52 528.81 115.94 528.81 118.96C528.81 121.98 526.57 124.4 523.29 124.4C520.01 124.4 517.77 121.98 517.77 118.96C517.77 115.94 520.01 113.52 523.29 113.52ZM523.33 122C524.95 122 526.17 120.7 526.17 118.96C526.17 117.2 524.95 115.92 523.33 115.92C521.65 115.92 520.41 117.2 520.41 118.96C520.41 120.72 521.65 122 523.33 122ZM532.406 112.16C531.506 112.16 530.746 111.4 530.746 110.5C530.746 109.6 531.506 108.84 532.406 108.84C533.306 108.84 534.046 109.6 534.046 110.5C534.046 111.4 533.306 112.16 532.406 112.16ZM531.126 124V113.92H533.666V124H531.126Z" fill="#000091"/>
<rect x="498" y="18" width="73.5" height="28" rx="2.33333" fill="#B8FEC9"/>
<path d="M510.285 36.6667V28.5001H512.408L516.06 34.4034V28.5001H517.716V36.6667H515.593L511.941 30.7634V36.6667H510.285ZM522.522 30.5534C524.436 30.5534 525.742 31.9651 525.742 33.7267C525.742 35.4884 524.436 36.9001 522.522 36.9001C520.609 36.9001 519.302 35.4884 519.302 33.7267C519.302 31.9651 520.609 30.5534 522.522 30.5534ZM522.546 35.5001C523.491 35.5001 524.202 34.7417 524.202 33.7267C524.202 32.7001 523.491 31.9534 522.546 31.9534C521.566 31.9534 520.842 32.7001 520.842 33.7267C520.842 34.7534 521.566 35.5001 522.546 35.5001ZM530.967 34.1234V30.7867H532.46V34.0534C532.46 35.8151 531.434 36.9001 529.707 36.9001C527.98 36.9001 526.965 35.8151 526.965 34.0534V30.7867H528.459V34.1234C528.459 34.9751 528.902 35.5001 529.719 35.5001C530.524 35.5001 530.967 34.9751 530.967 34.1234ZM533.352 30.7867H534.938L536.467 34.9867L537.983 30.7867H539.582L537.435 36.6667H535.487L533.352 30.7867ZM545.86 35.7101C545.312 36.4451 544.402 36.9001 543.293 36.9001C541.205 36.9001 540.027 35.4417 540.027 33.7267C540.027 31.9884 541.123 30.5534 543.048 30.5534C544.682 30.5534 545.755 31.6617 545.755 33.2017C545.755 33.5284 545.708 33.8317 545.662 34.0301H541.543C541.683 35.1267 542.36 35.5701 543.282 35.5701C543.923 35.5701 544.483 35.2901 544.798 34.8701L545.86 35.7101ZM543.013 31.7667C542.255 31.7667 541.753 32.1867 541.59 32.9567H544.297C544.273 32.3617 543.842 31.7667 543.013 31.7667ZM548.78 36.8417C547.601 36.8417 546.796 36.1651 546.796 35.0801C546.796 34.1934 547.485 33.5284 548.745 33.3184L550.541 33.0151V32.8634C550.541 32.2451 550.075 31.8484 549.398 31.8484C548.826 31.8484 548.383 32.1167 548.068 32.5484L546.983 31.7201C547.508 30.9967 548.371 30.5534 549.445 30.5534C551.148 30.5534 552.023 31.5684 552.023 32.8634V36.6667H550.541V36.0951C550.168 36.5501 549.468 36.8417 548.78 36.8417ZM548.266 35.0101C548.266 35.4067 548.581 35.6634 549.083 35.6634C549.76 35.6634 550.25 35.3484 550.541 34.8817V34.0534L549.141 34.2867C548.523 34.3917 548.266 34.6484 548.266 35.0101ZM557.593 34.1234V30.7867H559.086V34.0534C559.086 35.8151 558.06 36.9001 556.333 36.9001C554.606 36.9001 553.591 35.8151 553.591 34.0534V30.7867H555.085V34.1234C555.085 34.9751 555.528 35.5001 556.345 35.5001C557.15 35.5001 557.593 34.9751 557.593 34.1234Z" fill="#27A658"/>
</svg>
